<?xml version="1.0" standalone="no"?>
<!DOCTYPE svg PUBLIC "-//W3C//DTD SVG 20010904//EN"
 "http://www.w3.org/TR/2001/REC-SVG-20010904/DTD/svg10.dtd">
<svg version="1.0" xmlns="http://www.w3.org/2000/svg"
 width="336.000000pt" height="336.000000pt" viewBox="0 0 336.000000 336.000000"
 preserveAspectRatio="xMidYMid meet">
<metadata>
Created by potrace 1.14, written by Peter Selinger 2001-2017
</metadata>
<g transform="translate(0.000000,336.000000) scale(0.100000,-0.100000)"
fill="#000000" stroke="none">
<path d="M2150 2660 c-9 -6 -10 -10 -3 -10 6 0 15 5 18 10 8 12 4 12 -15 0z"/>
<path d="M2298 2663 c7 -3 16 -2 19 1 4 3 -2 6 -13 5 -11 0 -14 -3 -6 -6z"/>
<path d="M1357 2629 c7 -7 15 -10 18 -7 3 3 -2 9 -12 12 -14 6 -15 5 -6 -5z"/>
<path d="M1430 2620 c-9 -6 -10 -10 -3 -10 6 0 15 5 18 10 8 12 4 12 -15 0z"/>
<path d="M2540 2615 c0 -8 4 -15 10 -15 5 0 7 7 4 15 -4 8 -8 15 -10 15 -2 0
-4 -7 -4 -15z"/>
<path d="M878 2613 c7 -3 16 -2 19 1 4 3 -2 6 -13 5 -11 0 -14 -3 -6 -6z"/>
<path d="M1090 2610 c0 -5 5 -10 10 -10 6 0 10 5 10 10 0 6 -4 10 -10 10 -5 0
-10 -4 -10 -10z"/>
<path d="M1148 2614 c10 -5 10 -10 -4 -25 -15 -16 -15 -20 -1 -34 12 -11 38
-15 111 -15 57 0 96 -4 96 -10 0 -6 -34 -10 -82 -10 -46 0 -164 -7 -263 -15
-99 -8 -213 -15 -253 -15 -82 0 -156 -28 -146 -55 7 -17 40 -20 50 -4 5 8 9 8
14 -1 6 -9 12 -10 26 -1 11 6 14 11 7 11 -7 0 -10 7 -7 15 7 17 44 21 44 4 0
-6 9 -8 20 -4 16 5 20 2 20 -14 0 -12 4 -21 10 -21 5 0 7 7 4 15 -4 10 0 15
12 16 132 5 176 9 194 19 16 9 25 9 33 1 17 -17 37 -13 37 7 1 16 1 16 14 0
16 -22 42 -23 50 -3 3 8 10 15 16 15 6 0 8 -5 4 -11 -7 -12 159 -5 227 10 20
5 77 9 127 10 77 2 92 0 100 -15 9 -15 13 -16 26 -5 9 7 16 19 15 25 0 7 -2 6
-6 -1 -2 -7 -11 -13 -19 -13 -9 0 -13 4 -10 9 12 18 -52 30 -151 27 -89 -3
-101 -1 -95 13 3 9 10 19 16 23 6 4 7 10 3 15 -5 4 -11 3 -15 -3 -10 -15 -214
-14 -209 0 2 6 33 12 71 13 63 1 86 7 75 18 -3 2 -43 7 -89 10 -47 3 -79 2
-72 -1z"/>
<path d="M2060 2610 c-60 -8 -224 -61 -280 -91 -19 -11 -44 -19 -56 -19 -12 0
-24 -6 -27 -14 -3 -8 -30 -30 -59 -50 -29 -19 -73 -53 -97 -75 -24 -23 -48
-38 -54 -34 -5 3 -7 1 -4 -4 4 -6 -6 -24 -21 -39 -37 -38 -87 -105 -95 -127
-4 -11 -12 -15 -18 -11 -7 4 -9 3 -6 -4 9 -13 -2 -44 -13 -37 -5 3 -6 -3 -3
-14 3 -10 0 -22 -6 -25 -6 -4 -11 -12 -11 -18 0 -7 7 -5 18 4 28 24 71 37 195
57 64 11 122 23 128 26 5 4 40 2 77 -4 100 -15 450 -22 459 -8 4 6 8 23 9 37
2 14 13 34 26 44 l23 19 -27 -7 c-16 -3 -28 -2 -28 3 0 4 14 11 32 15 36 7 33
16 -8 20 -23 3 -30 9 -36 37 -4 19 -5 42 -2 52 3 9 1 17 -5 17 -6 0 -11 5 -11
10 0 6 6 10 14 10 14 0 26 29 26 63 0 25 -19 21 -30 -8 -10 -25 -24 -32 -34
-16 -3 5 -16 7 -28 3 -15 -3 -19 -2 -14 7 4 6 -11 2 -33 -10 -40 -20 -41 -21
-81 -2 -35 16 -55 43 -31 43 5 0 11 10 13 23 2 18 8 22 36 19 26 -2 32 2 32
18 0 27 16 26 23 -1 5 -19 11 -21 46 -15 34 5 42 3 52 -15 9 -17 17 -20 41
-15 26 5 39 -1 84 -37 29 -25 72 -49 96 -55 129 -33 167 -38 236 -33 70 6 115
-1 82 -13 -83 -29 -114 -36 -168 -36 -51 0 -73 5 -110 27 -26 15 -49 30 -52
34 -3 3 -15 11 -27 17 -30 16 -38 -9 -12 -39 26 -30 24 -38 -10 -45 -29 -6
-29 -7 -15 -29 13 -20 13 -23 -1 -29 -23 -8 -9 -26 20 -26 13 0 27 -4 30 -10
3 -5 23 -10 44 -10 31 0 40 -4 44 -21 3 -12 3 -19 1 -16 -7 6 -74 -60 -74 -72
0 -5 6 -11 13 -14 9 -3 8 -12 -5 -35 -24 -41 -23 -74 5 -99 26 -25 50 -30 94
-19 26 6 34 15 47 57 18 54 14 89 -10 89 -11 0 -14 15 -14 60 0 45 -4 62 -15
66 -18 7 -20 27 -3 22 7 -3 21 6 31 19 14 18 27 23 52 21 22 -1 42 5 54 16 20
18 21 18 31 -9 7 -18 15 -25 25 -21 9 3 20 -3 27 -14 15 -24 28 -26 28 -5 0 8
4 15 8 15 10 0 62 77 62 91 0 5 -5 9 -11 9 -6 0 0 19 14 43 l24 42 -27 23
c-16 12 -31 22 -35 22 -3 0 -21 11 -39 25 -72 55 -239 113 -374 131 -47 6 -56
4 -77 -16 -14 -13 -25 -27 -25 -32 0 -13 22 -9 41 8 10 9 20 11 23 6 10 -16
-20 -33 -68 -37 -36 -4 -46 -1 -46 10 0 8 6 15 13 15 22 0 38 16 31 33 -14 38
-68 9 -57 -31 4 -16 1 -22 -10 -22 -9 0 -19 5 -22 10 -4 6 -23 7 -46 4 -35 -6
-39 -4 -39 15 0 17 6 21 29 21 17 0 33 5 36 10 3 6 3 9 -2 9 -4 -1 -33 -5 -63
-9z m430 -62 c0 -12 -38 -10 -45 2 -12 19 5 30 25 17 11 -6 20 -15 20 -19z
m-475 12 c3 -6 -1 -13 -10 -16 -19 -8 -30 0 -20 15 8 14 22 14 30 1z m-154
-123 c-10 -9 -11 -8 -5 6 3 10 9 15 12 12 3 -3 0 -11 -7 -18z m62 -7 c3 -11 1
-20 -4 -20 -5 0 -9 9 -9 20 0 11 2 20 4 20 2 0 6 -9 9 -20z m512 -340 c7 -21
0 -40 -16 -40 -5 0 -9 14 -9 30 0 34 15 40 25 10z"/>
<path d="M800 2606 c0 -2 7 -7 16 -10 8 -3 12 -2 9 4 -6 10 -25 14 -25 6z"/>
<path d="M955 2597 c-27 -5 -53 -14 -56 -19 -3 -5 -10 -8 -15 -7 -22 4 -33 -2
-28 -15 3 -8 20 -13 47 -13 23 0 59 -3 80 -6 31 -6 37 -4 37 10 0 13 3 14 12
5 19 -19 35 -14 40 11 10 50 -12 56 -117 34z m8 -24 c-7 -2 -19 -2 -25 0 -7 3
-2 5 12 5 14 0 19 -2 13 -5z"/>
<path d="M1528 2583 c7 -3 16 -2 19 1 4 3 -2 6 -13 5 -11 0 -14 -3 -6 -6z"/>
<path d="M1575 2580 c-3 -6 1 -7 9 -4 18 7 21 14 7 14 -6 0 -13 -4 -16 -10z"/>
<path d="M705 2559 c-11 -16 -1 -19 13 -3 7 8 8 14 3 14 -5 0 -13 -5 -16 -11z"/>
<path d="M1100 2555 c0 -8 2 -15 4 -15 2 0 6 7 10 15 3 8 1 15 -4 15 -6 0 -10
-7 -10 -15z"/>
<path d="M770 2538 c-24 -11 -24 -11 15 -18 39 -7 88 1 69 12 -22 13 -61 15
-84 6z"/>
<path d="M1660 2540 c0 -5 -7 -6 -17 -3 -10 4 -14 2 -10 -4 4 -6 15 -13 26
-16 14 -3 17 0 14 14 -6 20 -13 25 -13 9z"/>
<path d="M606 2504 c-11 -8 -16 -14 -10 -14 13 0 39 18 34 24 -3 2 -14 -2 -24
-10z"/>
<path d="M2800 2490 c-9 -6 -10 -10 -3 -10 6 0 15 5 18 10 8 12 4 12 -15 0z"/>
<path d="M2913 2386 c0 -6 6 -17 13 -24 10 -9 12 -7 11 8 -1 21 -24 36 -24 16z"/>
<path d="M1511 2370 c-31 -26 -17 -26 16 0 14 11 22 20 17 20 -5 -1 -20 -10
-33 -20z"/>
<path d="M417 2362 c-15 -16 -15 -18 1 -18 10 0 18 8 18 18 0 10 -1 18 -2 18
0 0 -8 -8 -17 -18z"/>
<path d="M580 2355 c0 -8 7 -15 15 -15 8 0 15 7 15 15 0 8 -7 15 -15 15 -8 0
-15 -7 -15 -15z"/>
<path d="M1193 2333 c-7 -3 -13 -16 -13 -29 0 -26 -10 -30 -28 -12 -9 9 -15 8
-25 -6 -11 -16 -18 -17 -53 -7 -48 13 -65 14 -84 1 -13 -9 -13 -11 0 -20 11
-8 7 -9 -15 -4 -56 11 -65 15 -65 30 0 18 -15 18 -43 -1 -12 -8 -37 -15 -55
-17 -23 -2 -31 -6 -27 -17 5 -12 3 -12 -10 -1 -14 12 -20 10 -38 -13 -12 -14
-34 -31 -49 -36 -28 -10 -28 -10 -28 29 0 43 -17 53 -37 21 -6 -10 -24 -21
-40 -24 -49 -11 -67 -50 -69 -147 -2 -100 -11 -140 -31 -140 -9 0 -13 6 -9 15
9 25 -11 17 -29 -12 -17 -25 -19 -26 -25 -8 -7 19 -7 19 -21 -3 -8 -12 -19
-22 -26 -22 -7 0 -13 -7 -13 -15 0 -9 -5 -21 -10 -28 -6 -7 -16 -19 -23 -27
-7 -8 -11 -14 -10 -11 1 2 -4 10 -12 17 -14 14 -44 9 -57 -10 -4 -6 -14 -3
-27 8 -18 16 -21 17 -21 4 0 -9 7 -18 15 -22 8 -3 12 -12 9 -21 -3 -8 -1 -15
6 -15 19 0 42 -28 29 -35 -6 -4 -16 -2 -22 4 -6 6 -21 11 -33 11 -19 0 -22 -7
-28 -73 -7 -82 6 -229 30 -322 18 -71 86 -215 142 -302 51 -77 204 -233 229
-233 24 0 59 49 107 148 38 76 56 91 56 43 0 -16 7 -34 15 -41 12 -10 12 -15
-3 -38 -9 -15 -21 -30 -27 -34 -17 -12 27 -38 47 -27 28 15 44 10 57 -17 25
-55 -38 -110 -65 -56 -14 28 -29 29 -29 2 0 -11 -5 -19 -9 -19 -9 1 -31 -31
-24 -35 1 -1 21 -14 43 -28 54 -36 177 -75 283 -89 84 -11 263 -7 327 7 17 4
41 7 55 8 14 1 27 3 30 7 12 13 101 40 111 33 7 -4 9 -3 6 3 -8 13 50 36 66
26 5 -3 7 -1 4 4 -4 6 4 22 18 37 19 21 29 25 43 17 11 -6 25 -5 40 3 13 7 43
11 67 9 34 -3 48 0 64 16 24 24 35 27 28 9 -2 -7 3 -21 11 -31 15 -17 19 -14
77 47 44 46 73 68 104 77 38 11 42 15 36 38 -15 58 -45 113 -59 108 -9 -4 -48
-33 -89 -67 -40 -33 -79 -60 -85 -60 -15 0 -15 2 3 36 20 40 9 44 -23 8 -35
-40 -52 -34 -45 13 5 30 4 35 -9 30 -26 -9 -29 4 -8 31 13 16 17 29 11 36 -12
14 1 78 26 136 11 25 43 66 71 93 54 50 65 66 76 109 7 32 -15 33 -39 2 -13
-17 -14 -18 -15 -1 0 17 27 66 42 78 5 3 13 20 18 38 l9 33 -25 -27 c-25 -27
-62 -30 -56 -5 3 11 0 11 -12 0 -9 -7 -16 -18 -16 -25 0 -7 -7 -18 -15 -25
-12 -10 -18 -10 -30 0 -12 10 -18 10 -30 0 -12 -10 -15 -10 -15 3 0 8 7 20 16
27 8 8 20 22 25 32 9 17 8 18 -10 9 -38 -21 -36 -10 7 28 l43 38 -30 -5 c-35
-5 -38 3 -15 36 9 13 11 22 4 22 -6 0 -15 -11 -20 -25 -14 -36 -27 -31 -28 12
-1 22 -9 43 -22 55 -11 10 -20 15 -20 10 0 -14 -38 -21 -44 -8 -3 7 -8 6 -15
-4 -8 -12 -6 -16 9 -18 25 -4 25 -22 1 -68 -23 -42 -18 -62 16 -75 46 -17 39
-49 -16 -78 -31 -17 -75 -6 -68 17 13 46 12 47 -13 45 -71 -7 -70 -7 -70 -91
0 -93 17 -146 72 -224 29 -41 38 -62 31 -69 -12 -12 -50 4 -68 28 -8 11 -26
11 -90 3 -69 -8 -83 -14 -102 -37 -29 -36 -29 -51 2 -93 20 -27 22 -36 12 -49
-10 -14 -10 -14 4 -4 13 11 21 7 47 -26 24 -30 28 -41 19 -51 -10 -10 -7 -10
12 0 16 8 20 15 13 22 -17 17 4 49 26 41 9 -4 19 -9 22 -12 12 -15 64 -31 96
-31 19 0 54 -8 77 -19 23 -10 49 -21 57 -24 8 -3 3 -6 -13 -6 -15 -1 -46 -13
-70 -28 -42 -27 -46 -29 -69 -32 -7 -1 -1 -12 13 -25 26 -22 26 -23 7 -35 -17
-10 -25 -8 -53 14 -23 17 -32 31 -29 43 5 14 4 15 -5 2 -9 -12 -21 -4 -75 49
-36 36 -63 68 -60 73 3 4 1 8 -5 8 -24 0 -146 192 -135 213 4 6 4 9 -1 5 -12
-11 -37 43 -32 69 2 12 -1 21 -7 20 -16 -3 -54 144 -66 254 -12 123 1 265 36
387 14 47 28 89 32 92 4 3 8 12 10 20 7 34 56 119 65 113 6 -3 7 -1 3 5 -4 6
9 35 29 64 40 61 42 68 16 68 -11 0 -26 9 -34 21 -12 16 -19 19 -34 11 -18
-10 -70 -5 -88 8 -5 4 -16 5 -22 3z m-293 -288 c9 -11 9 -19 -3 -36 -14 -19
-14 -24 1 -47 16 -24 15 -24 -6 -17 -15 4 -32 1 -47 -9 -28 -18 -75 -21 -75
-5 0 6 -9 8 -20 4 -11 -3 -20 -4 -20 0 0 15 65 85 79 85 12 0 12 -3 3 -12 -23
-23 -13 -38 23 -38 38 0 42 6 21 36 -13 17 -12 21 1 37 20 21 27 21 43 2z
m-470 -146 c0 -5 -8 -13 -17 -16 -10 -4 -21 -11 -25 -17 -12 -17 -10 12 2 34
10 19 40 18 40 -1z m254 -76 c18 -52 21 -99 6 -108 -5 -3 -21 -28 -36 -56 -29
-53 -44 -58 -54 -18 -15 55 -4 135 24 183 15 25 31 46 35 46 5 0 16 -21 25
-47z m-217 -25 c-3 -8 -6 -5 -6 6 -1 11 2 17 5 13 3 -3 4 -12 1 -19z m-117
-34 c0 -3 -11 -19 -25 -36 -25 -29 -30 -24 -19 20 6 19 44 34 44 16z m145 -84
c-3 -5 -15 -10 -26 -10 -11 0 -17 5 -14 10 3 6 15 10 26 10 11 0 17 -4 14 -10z
m-117 -11 c-2 -6 -8 -10 -13 -10 -5 0 -11 4 -13 10 -2 6 4 11 13 11 9 0 15 -5
13 -11z m-148 -30 c0 -5 -7 -9 -15 -9 -9 0 -12 6 -9 15 6 15 24 11 24 -6z
m1560 -97 c0 -5 -9 -17 -21 -28 -21 -19 -21 -19 -8 9 12 26 29 37 29 19z
m-1090 -103 c0 -5 -4 -9 -10 -9 -5 0 -10 7 -10 16 0 8 5 12 10 9 6 -3 10 -10
10 -16z m-250 -179 c0 -5 -7 -10 -15 -10 -8 0 -15 5 -15 10 0 6 7 10 15 10 8
0 15 -4 15 -10z m267 -142 c-3 -8 -6 -5 -6 6 -1 11 2 17 5 13 3 -3 4 -12 1
-19z m-124 -66 c-3 -12 -12 -22 -19 -22 -18 0 -18 9 3 32 20 22 24 19 16 -10z
m1297 -192 c0 -16 -14 -12 -38 10 -30 28 -28 33 8 15 17 -9 30 -20 30 -25z
m-969 -19 c-15 -15 -21 -17 -21 -6 0 7 8 18 17 24 26 14 28 6 4 -18z m54 -2
c12 -18 -4 -59 -23 -59 -10 0 -24 -6 -31 -12 -18 -19 -3 42 17 65 17 20 28 22
37 6z m132 -31 c-3 -8 -6 -5 -6 6 -1 11 2 17 5 13 3 -3 4 -12 1 -19z m603 12
c0 -5 -7 -10 -15 -10 -8 0 -15 5 -15 10 0 6 7 10 15 10 8 0 15 -4 15 -10z
m-659 -22 c9 -18 8 -24 -6 -34 -18 -13 -45 -9 -45 8 0 16 20 48 30 48 5 0 15
-10 21 -22z"/>
<path d="M1451 2324 c0 -11 3 -14 6 -6 3 7 2 16 -1 19 -3 4 -6 -2 -5 -13z"/>
<path d="M1425 2321 c-3 -5 -2 -12 3 -15 5 -3 9 1 9 9 0 17 -3 19 -12 6z"/>
<path d="M510 2308 c0 -5 14 -8 30 -8 17 0 32 0 35 0 3 0 5 3 5 7 0 4 -16 8
-35 8 -19 0 -35 -3 -35 -7z"/>
<path d="M364 2299 c-3 -6 -1 -16 6 -22 10 -9 11 -9 5 2 -4 8 -2 17 6 22 9 6
10 9 2 9 -6 0 -15 -5 -19 -11z"/>
<path d="M2956 2265 c-3 -9 3 -19 15 -26 27 -14 34 -6 17 20 -15 25 -24 26
-32 6z"/>
<path d="M2875 2250 c-3 -5 -2 -10 4 -10 5 0 13 5 16 10 3 6 2 10 -4 10 -5 0
-13 -4 -16 -10z"/>
<path d="M3064 2208 c0 -10 1 -18 3 -18 1 0 7 8 12 18 7 13 6 19 -2 19 -7 0
-13 -9 -13 -19z"/>
<path d="M292 2184 c-7 -8 -8 -14 -3 -14 10 0 25 19 20 25 -2 1 -10 -3 -17
-11z"/>
<path d="M385 2190 c3 -5 8 -10 11 -10 2 0 4 5 4 10 0 6 -5 10 -11 10 -5 0 -7
-4 -4 -10z"/>
<path d="M2965 2170 c-12 -19 3 -57 30 -74 16 -10 25 -26 25 -42 0 -14 4 -33
9 -42 5 -10 13 -58 16 -107 4 -50 8 -101 10 -114 3 -39 -14 -113 -30 -131 -21
-23 -55 -164 -55 -227 0 -29 0 -77 0 -106 0 -48 -2 -55 -26 -66 -19 -8 -30 -9
-38 -1 -16 16 -26 12 -26 -10 0 -11 -4 -20 -9 -20 -5 0 -22 -5 -38 -12 -15 -6
-31 -11 -36 -10 -16 4 -50 -43 -59 -81 -10 -44 -2 -117 12 -117 5 0 6 16 3 35
-7 45 6 45 81 0 32 -19 63 -35 68 -35 5 0 22 -7 37 -15 28 -14 28 -14 75 48
181 243 240 577 154 872 -30 106 -96 235 -125 246 -47 18 -71 20 -78 9z"/>
<path d="M255 2149 c-4 -6 -5 -12 -2 -15 2 -3 7 2 10 11 7 17 1 20 -8 4z"/>
<path d="M2613 2148 c-4 -7 -8 -53 -9 -103 0 -49 -2 -99 -5 -110 -3 -14 1 -20
13 -20 9 0 25 -8 35 -18 11 -9 24 -17 30 -17 5 0 18 -9 28 -20 22 -24 41 -26
49 -4 3 9 13 14 20 11 8 -3 17 -1 20 6 3 9 5 8 5 -1 1 -8 8 -6 23 8 22 20 68
28 68 11 0 -15 94 0 108 17 20 26 15 110 -9 143 -17 24 -24 27 -40 18 -11 -5
-28 -7 -39 -4 -11 3 -27 2 -37 -3 -12 -7 -28 -5 -54 8 -20 11 -46 16 -58 13
-16 -4 -27 1 -37 16 -18 25 -44 28 -44 5 0 -24 -26 0 -34 31 -7 27 -20 32 -33
13z"/>
<path d="M3099 2147 c6 -6 18 -12 27 -13 12 -2 14 0 5 9 -6 6 -18 12 -27 13
-12 2 -14 0 -5 -9z"/>
<path d="M3146 2106 c5 -12 4 -17 -3 -13 -5 3 -10 -1 -10 -9 0 -13 2 -13 16 0
12 13 13 18 2 28 -10 11 -11 9 -5 -6z"/>
<path d="M1290 2091 c0 -5 5 -13 10 -16 6 -3 10 -2 10 4 0 5 -4 13 -10 16 -5
3 -10 2 -10 -4z"/>
<path d="M207 2055 c3 -8 9 -12 14 -9 12 7 11 11 -5 17 -10 4 -13 1 -9 -8z"/>
<path d="M3154 2029 c-4 -7 -3 -9 4 -5 5 3 12 0 15 -6 2 -7 7 -10 11 -7 4 3 0
12 -8 18 -11 9 -16 9 -22 0z"/>
<path d="M1293 2015 c-3 -9 -3 -18 -1 -21 3 -3 8 4 11 16 6 23 -1 27 -10 5z"/>
<path d="M2173 2015 c-9 -25 4 -29 17 -6 7 15 7 21 0 21 -6 0 -13 -7 -17 -15z"/>
<path d="M177 1963 c-4 -3 -7 -11 -7 -17 0 -6 5 -5 12 2 6 6 9 14 7 17 -3 3
-9 2 -12 -2z"/>
<path d="M1266 1943 c-6 -14 -5 -15 5 -6 7 7 10 15 7 18 -3 3 -9 -2 -12 -12z"/>
<path d="M1223 1925 c-3 -9 -3 -18 -1 -21 3 -3 8 4 11 16 6 23 -1 27 -10 5z"/>
<path d="M3221 1893 c-1 -6 -4 -20 -7 -30 -5 -17 -5 -17 6 0 6 10 9 23 6 30
-3 9 -5 9 -5 0z"/>
<path d="M2605 1863 c-11 -17 -23 -23 -36 -20 -10 3 -17 2 -14 -3 2 -4 1 -21
-4 -37 -7 -23 -5 -37 9 -58 17 -26 17 -29 2 -44 -10 -9 -30 -23 -47 -31 -23
-10 -26 -14 -12 -17 9 -3 17 -11 17 -19 0 -10 -5 -12 -12 -7 -29 17 -49 13
-61 -15 -6 -15 -17 -31 -24 -35 -14 -9 -44 -72 -42 -91 0 -6 7 4 15 22 17 38
23 39 47 7 22 -31 15 -45 -25 -45 -23 0 -28 -3 -21 -12 12 -15 2 -59 -12 -59
-5 1 -10 -3 -10 -9 0 -5 3 -9 7 -7 4 1 13 -5 20 -15 7 -9 22 -18 33 -20 16 -3
20 -11 20 -41 0 -26 4 -37 15 -38 13 0 13 -1 0 -6 -10 -4 -3 -10 20 -18 24 -8
34 -18 32 -29 -2 -11 4 -16 23 -16 34 0 33 -27 -2 -34 -59 -13 -104 -15 -98
-6 9 15 -22 12 -37 -3 -7 -7 -22 -17 -33 -22 -20 -8 -19 -9 2 -12 12 -2 24
-11 27 -19 3 -9 1 -12 -4 -9 -15 9 -25 -24 -11 -38 8 -8 6 -15 -6 -29 -9 -10
-21 -18 -27 -18 -6 0 -28 -14 -49 -31 -29 -24 -41 -28 -51 -20 -8 7 -16 8 -18
4 -3 -4 -3 -3 -2 4 2 6 -3 16 -10 22 -10 8 -16 5 -24 -13 -11 -25 -1 -36 35
-36 19 0 83 -30 83 -39 0 -4 -27 -5 -60 -3 -33 2 -66 0 -73 -5 -6 -5 -30 -10
-52 -12 -58 -3 -75 -9 -125 -50 -55 -44 -78 -69 -91 -100 -11 -27 -11 -28 16
-33 11 -1 25 -9 30 -15 20 -24 136 -9 121 16 -3 4 4 17 15 27 21 19 21 19 18
-11 -2 -17 -11 -35 -19 -42 -12 -10 -8 -12 24 -13 43 0 65 20 66 58 0 12 10
30 21 40 12 9 29 25 37 34 9 9 19 15 24 12 5 -3 15 0 23 6 8 7 15 8 15 3 0 -6
11 -8 24 -6 14 3 35 -2 48 -11 12 -9 37 -16 54 -16 25 0 40 -9 66 -39 29 -33
37 -38 66 -33 20 2 39 14 49 28 8 13 19 21 24 18 5 -3 6 1 3 9 -3 8 2 17 12
21 13 5 14 9 4 21 -14 17 -86 20 -96 4 -3 -6 -16 -8 -28 -5 -12 3 -32 -1 -43
-9 -18 -13 -22 -13 -33 -1 -9 12 -7 17 7 24 23 12 84 26 100 23 24 -4 93 20
93 32 0 7 -7 23 -16 35 -8 12 -14 30 -12 40 1 9 -1 23 -6 30 -4 7 -4 18 1 25
12 16 33 89 33 115 0 15 -8 24 -25 28 -14 3 -25 11 -25 16 0 6 7 8 15 4 11 -4
15 1 15 19 0 17 4 23 14 19 20 -8 27 28 29 152 2 104 4 113 31 152 16 23 33
39 38 36 13 -8 67 47 61 62 -2 7 0 15 6 19 15 9 14 25 -1 25 -30 1 -39 16 -28
45 8 21 8 30 -1 36 -10 6 -10 11 -1 22 7 8 10 22 6 31 -7 18 -24 22 -24 5 0
-8 -4 -8 -12 -1 -7 5 -24 12 -38 14 -17 2 -25 10 -26 24 -2 30 -10 41 -43 52
-26 9 -32 8 -46 -15z m-235 -995 c0 -6 -6 -5 -15 2 -8 7 -15 14 -15 16 0 2 7
1 15 -2 8 -4 15 -11 15 -16z m-380 -152 c0 -3 -4 -8 -10 -11 -5 -3 -10 -1 -10
4 0 6 5 11 10 11 6 0 10 -2 10 -4z"/>
<path d="M1795 1870 c-9 -15 4 -30 26 -30 23 0 26 25 3 34 -21 8 -22 8 -29 -4z"/>
<path d="M1732 1806 c-23 -39 -19 -50 11 -35 13 8 22 8 26 1 4 -7 18 -3 39 10
43 27 28 47 -18 24 -32 -15 -32 -15 -26 9 9 36 -9 31 -32 -9z"/>
<path d="M2335 1704 c-46 -17 -67 -34 -43 -34 16 0 88 38 88 46 0 5 4 6 -45
-12z"/>
<path d="M3246 1703 c-6 -14 -5 -15 5 -6 7 7 10 15 7 18 -3 3 -9 -2 -12 -12z"/>
<path d="M121 1654 c0 -11 3 -14 6 -6 3 7 2 16 -1 19 -3 4 -6 -2 -5 -13z"/>
<path d="M2335 1650 c-10 -11 -14 -20 -8 -20 5 0 18 9 28 20 10 11 14 20 8 20
-5 0 -18 -9 -28 -20z"/>
<path d="M2361 1590 c-19 -17 -32 -32 -30 -34 5 -6 29 13 53 42 26 30 17 27
-23 -8z"/>
<path d="M1211 1504 c0 -11 3 -14 6 -6 3 7 2 16 -1 19 -3 4 -6 -2 -5 -13z"/>
<path d="M3220 1505 c0 -5 5 -17 10 -25 5 -8 10 -10 10 -5 0 6 -5 17 -10 25
-5 8 -10 11 -10 5z"/>
<path d="M130 1441 c0 -6 4 -13 10 -16 6 -3 7 1 4 9 -7 18 -14 21 -14 7z"/>
<path d="M3216 1407 c4 -17 1 -34 -7 -45 -13 -15 -12 -16 4 -3 19 15 22 38 7
61 -8 11 -9 8 -4 -13z"/>
<path d="M1330 1330 c0 -12 8 -12 35 0 18 8 17 9 -7 9 -16 1 -28 -3 -28 -9z"/>
<path d="M185 1289 c-4 -6 -5 -12 -2 -15 2 -3 7 2 10 11 7 17 1 20 -8 4z"/>
<path d="M211 1263 c7 -12 15 -20 18 -17 3 2 -3 12 -13 22 -17 16 -18 16 -5
-5z"/>
<path d="M3166 1236 c6 -15 4 -17 -6 -11 -9 6 -11 4 -5 -4 5 -9 10 -10 18 -2
8 8 7 14 -2 24 -10 10 -11 8 -5 -7z"/>
<path d="M3135 1189 c-3 -4 2 -6 10 -5 21 3 28 13 10 13 -9 0 -18 -4 -20 -8z"/>
<path d="M236 1175 c-3 -9 -2 -13 3 -10 6 3 14 -3 20 -12 6 -10 10 -13 10 -8
0 6 -6 18 -13 28 -12 16 -14 16 -20 2z"/>
<path d="M3103 1145 c0 -8 4 -12 8 -9 4 2 9 -1 11 -8 3 -7 7 -4 12 7 4 11 4
16 0 12 -4 -4 -12 -2 -19 3 -8 7 -12 5 -12 -5z"/>
<path d="M280 1101 c0 -7 -5 -9 -12 -5 -7 5 -8 3 -3 -5 5 -9 10 -10 18 -2 6 6
8 14 4 18 -4 3 -7 1 -7 -6z"/>
<path d="M3085 1080 c-8 -13 -16 -54 -9 -47 3 3 6 9 6 14 0 4 4 16 9 26 10 18
5 24 -6 7z"/>
<path d="M3046 1047 c3 -10 9 -15 12 -12 3 3 0 11 -7 18 -10 9 -11 8 -5 -6z"/>
<path d="M349 1011 c6 -10 7 -22 3 -26 -4 -5 -1 -5 6 -1 9 5 9 12 2 27 -6 10
-13 19 -16 19 -2 0 0 -8 5 -19z"/>
<path d="M3006 979 c-10 -10 -22 -16 -26 -14 -4 2 -7 -2 -7 -10 0 -8 1 -15 2
-15 7 0 58 50 55 53 -3 3 -14 -4 -24 -14z"/>
<path d="M395 959 c-6 -8 -4 -10 5 -4 9 5 10 1 6 -16 -6 -21 -6 -22 5 -6 7 13
8 22 1 29 -6 6 -12 6 -17 -3z"/>
<path d="M1496 921 c-3 -5 2 -17 12 -28 9 -10 13 -13 9 -6 -5 6 -6 17 -3 22 4
5 2 12 -3 15 -5 4 -12 2 -15 -3z"/>
<path d="M479 863 c-7 -10 -9 -15 -5 -11 5 4 15 0 22 -10 13 -16 13 -15 11 5
-4 32 -12 36 -28 16z"/>
<path d="M2829 833 c-13 -16 -12 -17 4 -4 9 7 17 15 17 17 0 8 -8 3 -21 -13z"/>
<path d="M644 825 c-3 -8 -3 -19 1 -25 11 -18 25 -11 25 15 0 27 -17 34 -26
10z"/>
<path d="M1585 830 c3 -5 14 -10 23 -10 15 0 15 2 2 10 -20 13 -33 13 -25 0z"/>
<path d="M520 825 c0 -7 30 -13 34 -7 3 4 -4 9 -15 9 -10 1 -19 0 -19 -2z"/>
<path d="M2790 805 c0 -2 6 -8 13 -14 10 -8 14 -7 14 2 0 8 -6 14 -14 14 -7 0
-13 -1 -13 -2z"/>
<path d="M1870 764 c0 -8 5 -12 10 -9 6 4 8 11 5 16 -9 14 -15 11 -15 -7z"/>
<path d="M666 747 c3 -10 9 -15 12 -12 3 3 0 11 -7 18 -10 9 -11 8 -5 -6z"/>
<path d="M1678 743 c6 -2 18 -2 25 0 6 3 1 5 -13 5 -14 0 -19 -2 -12 -5z"/>
<path d="M2309 729 c-5 -10 -9 -29 -9 -43 0 -28 -1 -28 92 -30 25 0 44 2 42 6
-2 4 0 9 6 13 6 4 8 10 5 15 -3 5 3 15 14 22 33 24 10 35 -67 35 -59 -1 -75
-5 -83 -18z"/>
<path d="M2665 729 c-11 -16 -1 -19 13 -3 7 8 8 14 3 14 -5 0 -13 -5 -16 -11z"/>
<path d="M1510 690 c-13 -8 -12 -10 3 -10 9 0 17 5 17 10 0 12 -1 12 -20 0z"/>
<path d="M2610 680 c-9 -6 -10 -10 -3 -10 6 0 15 5 18 10 8 12 4 12 -15 0z"/>
<path d="M2557 669 c7 -7 15 -10 18 -7 3 3 -2 9 -12 12 -14 6 -15 5 -6 -5z"/>
<path d="M798 663 c7 -3 16 -2 19 1 4 3 -2 6 -13 5 -11 0 -14 -3 -6 -6z"/>
<path d="M1996 633 c-6 -14 -5 -15 5 -6 7 7 10 15 7 18 -3 3 -9 -2 -12 -12z"/>
<path d="M2028 623 c7 -3 16 -2 19 1 4 3 -2 6 -13 5 -11 0 -14 -3 -6 -6z"/>
<path d="M1178 613 c6 -2 18 -2 25 0 6 3 1 5 -13 5 -14 0 -19 -2 -12 -5z"/>
<path d="M2288 613 c6 -2 18 -2 25 0 6 3 1 5 -13 5 -14 0 -19 -2 -12 -5z"/>
</g>
</svg>
