<?xml version="1.0" encoding="UTF-8"?> <svg xmlns="http://www.w3.org/2000/svg" width="4474" height="1086" viewBox="0 0 4474 1086" fill="none"><path fill-rule="evenodd" clip-rule="evenodd" d="M1085.53 542.781C1085.53 842.55 842.528 1085.56 542.766 1085.56C421.136 1085.56 308.849 1045.55 218.349 977.976L410.294 786.027C449.644 807.503 494.78 819.709 542.766 819.709C695.706 819.709 819.688 695.724 819.688 542.781C819.688 494.793 807.482 449.655 786.006 410.304L977.95 218.355C1045.52 308.858 1085.53 421.147 1085.53 542.781ZM866.858 107.343C776.414 39.9134 664.251 0 542.766 0C243.005 0 0 243.011 0 542.781C0 662.796 38.9508 773.714 104.9 863.582L297.83 672.1C277.409 633.499 265.845 589.49 265.845 542.781C265.845 389.837 389.827 265.852 542.766 265.852C590.221 265.852 634.888 277.789 673.929 298.824L866.858 107.343Z" fill="#FF6622"></path><path d="M1603.54 448.744C1593.46 400.294 1553.14 338 1452.33 338C1369.8 338 1304.9 400.923 1304.9 470.767C1304.9 537.466 1350.26 578.995 1413.9 592.838L1477.53 606.681C1522.27 616.119 1544.32 643.805 1544.32 675.896C1544.32 714.908 1514.08 746.999 1452.33 746.999C1384.92 746.999 1349.63 701.065 1345.22 651.356L1286 670.233C1294.19 733.785 1345.22 803 1452.96 803C1548.1 803 1607.32 740.077 1607.32 670.862C1607.32 608.568 1565.74 562.005 1491.39 545.645L1424.61 531.173C1386.81 522.993 1367.28 498.453 1367.28 466.363C1367.28 424.834 1403.19 392.114 1453.59 392.114C1515.97 392.114 1543.06 436.16 1548.1 468.25L1603.54 448.744Z" fill="#242424"></path><path d="M1632.46 712.391C1632.46 760.212 1672.15 803 1733.89 803C1788.08 803 1818.32 774.055 1831.55 752.662C1831.55 774.685 1833.44 786.011 1834.7 793.562H1892.66C1891.4 786.011 1888.88 770.28 1888.88 743.853V592.208C1888.88 533.061 1853.6 481.464 1762.87 481.464C1697.35 481.464 1645.06 521.735 1638.76 579.624L1695.46 592.838C1699.24 557.601 1722.55 531.802 1764.13 531.802C1810.13 531.802 1829.66 556.342 1829.66 585.916C1829.66 596.613 1824.62 606.051 1806.35 608.568L1724.44 620.524C1672.15 628.074 1632.46 658.277 1632.46 712.391ZM1742.08 753.291C1711.84 753.291 1692.94 731.897 1692.94 709.245C1692.94 682.188 1711.84 667.716 1737.04 663.94L1829.66 650.097V663.94C1829.66 730.009 1790.6 753.291 1742.08 753.291Z" fill="#242424"></path><path d="M2029.03 395.26H1974.85V444.34C1974.85 470.767 1960.98 490.903 1928.22 490.903H1911.84V544.387H1969.8V710.503C1969.8 765.246 2002.57 796.708 2054.23 796.708C2074.39 796.708 2089.51 792.932 2094.55 791.045V740.706C2089.51 741.965 2078.8 743.223 2071.24 743.223C2040.37 743.223 2029.03 729.38 2029.03 701.694V544.387H2094.55V490.903H2029.03V395.26Z" fill="#242424"></path><path d="M2341.83 757.066C2341.83 769.651 2343.09 786.64 2344.35 793.562H2401.05C2399.79 782.865 2397.9 761.471 2397.9 737.56V490.903H2338.68V673.379C2338.68 719.313 2314.73 750.774 2266.85 750.774C2217.08 750.774 2198.18 714.279 2198.18 672.75V490.903H2138.95V681.559C2138.95 750.145 2181.8 803 2252.36 803C2287.64 803 2325.45 788.528 2341.83 757.066Z" fill="#242424"></path><path d="M2635.68 487.756C2632.53 487.127 2624.34 485.869 2616.15 485.869C2585.28 485.869 2547.48 497.195 2525.43 543.758V490.903H2467.46V793.562H2526.69V641.917C2526.69 575.219 2560.08 548.792 2609.85 548.792C2618.04 548.792 2626.86 549.421 2635.68 550.679V487.756Z" fill="#242424"></path><path d="M2726.53 618.636C2726.53 572.702 2750.47 535.578 2797.09 535.578C2850.02 535.578 2867.66 569.556 2867.66 611.715V793.562H2926.88V601.647C2926.88 534.319 2890.97 482.093 2818.51 482.093C2783.23 482.093 2747.32 496.566 2725.27 534.319V490.903H2667.3V793.562H2726.53V618.636Z" fill="#242424"></path><path d="M3189.31 803C3292.01 803 3362.57 743.223 3386.51 659.536L3331.7 639.401C3313.43 700.436 3265.55 746.369 3189.31 746.369C3108.03 746.369 3030.54 686.593 3030.54 570.185C3030.54 453.778 3108.03 394.631 3189.31 394.631C3262.4 394.631 3311.54 432.384 3328.55 499.712L3385.88 479.576C3363.2 393.372 3291.38 338 3189.31 338C3078.42 338 2967.53 421.058 2967.53 570.185C2967.53 719.313 3074.01 803 3189.31 803Z" fill="#242424"></path><path d="M3483.69 793.562V338H3424.46V793.562H3483.69Z" fill="#242424"></path><path d="M3682.72 750.145C3632.32 750.145 3588.22 712.391 3588.22 641.917C3588.22 572.073 3632.32 534.319 3682.72 534.319C3733.13 534.319 3777.23 572.073 3777.23 641.917C3777.23 712.391 3733.13 750.145 3682.72 750.145ZM3682.72 481.464C3592 481.464 3527.73 550.05 3527.73 641.917C3527.73 734.414 3592 803 3682.72 803C3773.45 803 3837.71 734.414 3837.71 641.917C3837.71 550.05 3773.45 481.464 3682.72 481.464Z" fill="#242424"></path><path d="M4078.63 757.066C4078.63 769.651 4079.89 786.64 4081.15 793.562H4137.86C4136.6 782.865 4134.71 761.471 4134.71 737.56V490.903H4075.48V673.379C4075.48 719.313 4051.54 750.774 4003.66 750.774C3953.88 750.774 3934.98 714.279 3934.98 672.75V490.903H3875.76V681.559C3875.76 750.145 3918.6 803 3989.17 803C4024.45 803 4062.25 788.528 4078.63 757.066Z" fill="#242424"></path><path d="M4236.47 641.288C4236.47 578.995 4271.76 534.949 4325.94 534.949C4380.12 534.949 4412.89 577.736 4412.89 640.03C4412.89 702.323 4379.49 749.516 4325.31 749.516C4268.61 749.516 4236.47 703.582 4236.47 641.288ZM4413.52 752.662C4413.52 770.909 4415.41 786.64 4416.67 793.562H4474C4473.37 788.528 4470.85 766.505 4470.85 737.56V338H4412.26V533.69C4402.18 509.15 4373.19 482.723 4319.64 482.723C4233.95 482.723 4175.99 555.713 4175.99 641.288C4175.99 731.268 4230.8 801.742 4319.64 801.742C4366.89 801.742 4399.02 776.572 4413.52 747.628V752.662Z" fill="#242424"></path></svg> 